<?xml version="1.0" encoding="UTF-8"?>
<!-- Generator: visioncortex VTracer 0.6.5 -->
<svg version="1.1" xmlns="http://www.w3.org/2000/svg" width="256" height="256" viewBox="0 0 720 720">
<path d="M0 0 C0.757 -0.003 0.757 -0.003 4.59 -0.02 C6.273 -0.017 7.955 -0.013 9.638 -0.01 C11.425 -0.014 13.211 -0.018 14.997 -0.024 C19.911 -0.036 24.825 -0.036 29.739 -0.033 C35.036 -0.033 40.333 -0.044 45.631 -0.054 C56.011 -0.07 66.391 -0.076 76.771 -0.077 C85.205 -0.078 93.64 -0.082 102.075 -0.088 C125.976 -0.106 149.877 -0.115 173.778 -0.114 C175.067 -0.113 176.356 -0.113 177.684 -0.113 C178.975 -0.113 180.265 -0.113 181.595 -0.113 C202.52 -0.112 223.444 -0.131 244.369 -0.16 C265.841 -0.188 287.314 -0.202 308.787 -0.2 C320.847 -0.2 332.907 -0.205 344.968 -0.227 C355.234 -0.245 365.501 -0.249 375.767 -0.236 C381.007 -0.229 386.248 -0.229 391.488 -0.246 C396.282 -0.262 401.077 -0.259 405.871 -0.242 C407.608 -0.239 409.345 -0.243 411.082 -0.254 C413.439 -0.268 415.796 -0.255 418.153 -0.241 C419.463 -0.241 420.773 -0.241 422.123 -0.242 C427.185 0.477 430.368 2.595 433.456 6.632 C435.178 10.452 435.458 14.188 435.917 18.32 C437.109 23.167 439.438 25.515 443.635 28.109 C444.771 28.694 445.907 29.279 447.077 29.882 C468.174 41.581 481.398 59.381 488.85 82.121 C491.289 91.817 491.93 100.861 491.907 110.822 C491.911 112.256 491.916 113.69 491.92 115.168 C491.933 119.956 491.931 124.745 491.93 129.533 C491.935 132.973 491.942 136.414 491.95 139.854 C491.967 148.22 491.972 156.586 491.973 164.952 C491.974 171.757 491.978 178.563 491.985 185.368 C492.002 204.691 492.012 224.013 492.01 243.336 C492.01 243.856 492.01 243.856 492.01 246.489 C492.01 247.531 492.01 248.572 492.01 249.646 C492.009 266.517 492.028 283.388 492.056 300.26 C492.085 317.61 492.099 334.961 492.097 352.311 C492.096 362.041 492.102 371.771 492.123 381.501 C492.142 389.788 492.146 398.074 492.132 406.361 C492.126 410.582 492.128 414.802 492.143 419.023 C492.248 450.095 488.595 477.861 467.639 502.257 C466.907 503.124 466.175 503.99 465.42 504.882 C461.387 509.559 461.387 509.559 459.639 511.257 C458.979 511.257 458.319 511.257 457.639 511.257 C457.639 511.917 457.639 512.577 457.639 513.257 C437.892 529.935 416.243 537.573 390.569 537.531 C388.961 537.537 387.352 537.542 385.696 537.547 C381.251 537.561 376.807 537.563 372.363 537.563 C367.561 537.564 362.76 537.577 357.959 537.589 C347.469 537.612 336.979 537.62 326.489 537.625 C319.932 537.628 313.375 537.635 306.818 537.642 C288.645 537.661 270.471 537.678 252.298 537.681 C251.716 537.681 251.716 537.681 248.776 537.681 C246.421 537.682 244.065 537.682 241.709 537.682 C241.125 537.682 241.125 537.682 238.166 537.683 C237.581 537.683 237.581 537.683 234.619 537.683 C215.663 537.687 196.707 537.714 177.751 537.751 C158.263 537.789 138.776 537.809 119.288 537.809 C108.357 537.81 97.426 537.818 86.495 537.847 C77.184 537.872 67.874 537.879 58.564 537.864 C53.82 537.857 49.076 537.857 44.333 537.88 C7.793 538.046 7.793 538.046 -7.361 532.257 C-8.81 531.713 -10.258 531.169 -11.751 530.608 C-21.306 526.86 -29.299 521.549 -37.361 515.257 C-38.316 514.539 -39.271 513.821 -40.255 513.081 C-40.95 512.479 -41.645 511.878 -42.361 511.257 C-42.361 510.597 -42.361 509.937 -42.361 509.257 C-43.021 509.257 -43.681 509.257 -44.361 509.257 C-44.361 508.597 -44.361 507.937 -44.361 507.257 C-45.021 507.257 -45.681 507.257 -46.361 507.257 C-46.361 506.597 -46.361 505.937 -46.361 505.257 C-47.021 505.257 -47.681 505.257 -48.361 505.257 C-66.281 485.779 -74.689 460.806 -74.628 434.737 C-74.633 433.295 -74.637 431.854 -74.642 430.369 C-74.652 426.39 -74.654 422.411 -74.652 418.432 C-74.651 414.132 -74.662 409.832 -74.672 405.532 C-74.688 397.114 -74.694 388.697 -74.695 380.279 C-74.696 373.432 -74.7 366.584 -74.706 359.737 C-74.724 340.298 -74.733 320.859 -74.732 301.419 C-74.732 300.372 -74.731 299.325 -74.731 298.247 C-74.731 297.198 -74.731 296.15 -74.731 295.07 C-74.73 278.095 -74.749 261.12 -74.778 244.146 C-74.806 226.691 -74.82 209.236 -74.818 191.782 C-74.818 181.993 -74.823 172.203 -74.845 162.414 C-74.863 154.076 -74.867 145.739 -74.854 137.401 C-74.847 133.154 -74.849 128.907 -74.865 124.659 C-74.969 93.461 -71.569 67.025 -48.923 43.382 C-41.497 36.34 -32.867 31.258 -24.048 26.152 C-21.361 24.257 -21.361 24.257 -19.361 20.257 C-19.043 18.306 -18.776 16.346 -18.548 14.382 C-17.712 9.027 -16.539 5.95 -12.361 2.257 C-8.198 0.122 -4.641 0.005 0 0 Z " fill="#CB1E42" transform="translate(150.36080074310303,142.74273109436035)"/>
<path d="M0 0 C0.757 -0.003 0.757 -0.003 4.59 -0.02 C6.273 -0.017 7.955 -0.013 9.638 -0.01 C11.425 -0.014 13.211 -0.018 14.997 -0.024 C19.911 -0.036 24.825 -0.036 29.739 -0.033 C35.036 -0.033 40.333 -0.044 45.631 -0.054 C56.011 -0.07 66.391 -0.076 76.771 -0.077 C85.205 -0.078 93.64 -0.082 102.075 -0.088 C125.976 -0.106 149.877 -0.115 173.778 -0.114 C175.067 -0.113 176.356 -0.113 177.684 -0.113 C178.975 -0.113 180.265 -0.113 181.595 -0.113 C202.52 -0.112 223.444 -0.131 244.369 -0.16 C265.841 -0.188 287.314 -0.202 308.787 -0.2 C320.847 -0.2 332.907 -0.205 344.968 -0.227 C355.234 -0.245 365.501 -0.249 375.767 -0.236 C381.007 -0.229 386.248 -0.229 391.488 -0.246 C396.282 -0.262 401.077 -0.259 405.871 -0.242 C407.608 -0.239 409.345 -0.243 411.082 -0.254 C413.439 -0.268 415.796 -0.255 418.153 -0.241 C419.463 -0.241 420.773 -0.241 422.123 -0.242 C427.185 0.477 430.368 2.595 433.456 6.632 C435.178 10.452 435.458 14.188 435.917 18.32 C437.109 23.167 439.438 25.515 443.635 28.109 C444.771 28.694 445.907 29.279 447.077 29.882 C468.174 41.581 481.398 59.381 488.85 82.121 C491.289 91.817 491.93 100.861 491.907 110.822 C491.911 112.256 491.916 113.69 491.92 115.168 C491.933 119.956 491.931 124.745 491.93 129.533 C491.935 132.973 491.942 136.414 491.95 139.854 C491.967 148.22 491.972 156.586 491.973 164.952 C491.974 171.757 491.978 178.563 491.985 185.368 C492.002 204.691 492.012 224.013 492.01 243.336 C492.01 243.856 492.01 243.856 492.01 246.489 C492.01 247.531 492.01 248.572 492.01 249.646 C492.009 266.517 492.028 283.388 492.056 300.26 C492.085 317.61 492.099 334.961 492.097 352.311 C492.096 362.041 492.102 371.771 492.123 381.501 C492.142 389.788 492.146 398.074 492.132 406.361 C492.126 410.582 492.128 414.802 492.143 419.023 C492.248 450.095 488.595 477.861 467.639 502.257 C466.907 503.124 466.175 503.99 465.42 504.882 C461.387 509.559 461.387 509.559 459.639 511.257 C458.979 511.257 458.319 511.257 457.639 511.257 C457.639 511.917 457.639 512.577 457.639 513.257 C437.892 529.935 416.243 537.573 390.569 537.531 C388.961 537.537 387.352 537.542 385.696 537.547 C381.251 537.561 376.807 537.563 372.363 537.563 C367.561 537.564 362.76 537.577 357.959 537.589 C347.469 537.612 336.979 537.62 326.489 537.625 C319.932 537.628 313.375 537.635 306.818 537.642 C288.645 537.661 270.471 537.678 252.298 537.681 C251.716 537.681 251.716 537.681 248.776 537.681 C246.421 537.682 244.065 537.682 241.709 537.682 C241.125 537.682 241.125 537.682 238.166 537.683 C237.581 537.683 237.581 537.683 234.619 537.683 C215.663 537.687 196.707 537.714 177.751 537.751 C158.263 537.789 138.776 537.809 119.288 537.809 C108.357 537.81 97.426 537.818 86.495 537.847 C77.184 537.872 67.874 537.879 58.564 537.864 C53.82 537.857 49.076 537.857 44.333 537.88 C7.793 538.046 7.793 538.046 -7.361 532.257 C-8.81 531.713 -10.258 531.169 -11.751 530.608 C-21.306 526.86 -29.299 521.549 -37.361 515.257 C-38.316 514.539 -39.271 513.821 -40.255 513.081 C-40.95 512.479 -41.645 511.878 -42.361 511.257 C-42.361 510.597 -42.361 509.937 -42.361 509.257 C-43.021 509.257 -43.681 509.257 -44.361 509.257 C-44.361 508.597 -44.361 507.937 -44.361 507.257 C-45.021 507.257 -45.681 507.257 -46.361 507.257 C-46.361 506.597 -46.361 505.937 -46.361 505.257 C-47.021 505.257 -47.681 505.257 -48.361 505.257 C-66.281 485.779 -74.689 460.806 -74.628 434.737 C-74.633 433.295 -74.637 431.854 -74.642 430.369 C-74.652 426.39 -74.654 422.411 -74.652 418.432 C-74.651 414.132 -74.662 409.832 -74.672 405.532 C-74.688 397.114 -74.694 388.697 -74.695 380.279 C-74.696 373.432 -74.7 366.584 -74.706 359.737 C-74.724 340.298 -74.733 320.859 -74.732 301.419 C-74.732 300.372 -74.731 299.325 -74.731 298.247 C-74.731 297.198 -74.731 296.15 -74.731 295.07 C-74.73 278.095 -74.749 261.12 -74.778 244.146 C-74.806 226.691 -74.82 209.236 -74.818 191.782 C-74.818 181.993 -74.823 172.203 -74.845 162.414 C-74.863 154.076 -74.867 145.739 -74.854 137.401 C-74.847 133.154 -74.849 128.907 -74.865 124.659 C-74.969 93.461 -71.569 67.025 -48.923 43.382 C-41.497 36.34 -32.867 31.258 -24.048 26.152 C-21.361 24.257 -21.361 24.257 -19.361 20.257 C-19.043 18.306 -18.776 16.346 -18.548 14.382 C-17.712 9.027 -16.539 5.95 -12.361 2.257 C-8.198 0.122 -4.641 0.005 0 0 Z M177.639 37.257 C177.639 37.917 177.639 38.577 177.639 39.257 C176.959 39.211 176.278 39.164 175.577 39.117 C166.452 38.777 158.379 40.773 149.639 43.257 C149.639 43.917 149.639 44.577 149.639 45.257 C148.634 45.381 147.628 45.505 146.592 45.632 C142.729 46.243 139.139 47.153 135.389 48.257 C134.188 48.608 132.986 48.959 131.749 49.32 C129.703 49.936 127.666 50.582 125.639 51.257 C125.309 51.917 124.979 52.577 124.639 53.257 C121.978 53.946 119.31 54.609 116.639 55.257 C112.639 56.757 112.639 56.757 109.639 58.257 C109.639 58.917 109.639 59.577 109.639 60.257 C109.247 60.288 109.247 60.288 107.264 60.445 C102.325 61.552 97.968 63.641 93.639 66.257 C93.309 66.917 92.979 67.577 92.639 68.257 C91.525 68.629 90.412 69 89.264 69.382 C83.287 71.805 78.745 75.374 73.639 79.257 C71.808 80.573 69.975 81.885 68.139 83.195 C58.042 90.556 48.738 98.702 39.639 107.257 C38.95 107.904 38.26 108.551 37.549 109.218 C36.201 110.519 34.91 111.88 33.639 113.257 C33.639 113.917 33.639 114.577 33.639 115.257 C32.979 115.257 32.319 115.257 31.639 115.257 C28.416 118.728 25.582 122.548 22.639 126.257 C21.66 127.434 20.68 128.611 19.67 129.824 C18.691 131.019 17.711 132.214 16.702 133.445 C15.785 134.552 14.869 135.659 13.924 136.8 C11.417 140.593 10.488 143.818 9.639 148.257 C8.649 148.257 7.659 148.257 6.639 148.257 C3.392 152.85 1.31 156.887 -0.361 162.257 C-1.35 163.931 -2.347 165.599 -3.361 167.257 C-3.361 167.917 -3.361 168.577 -3.361 169.257 C-4.021 169.257 -4.681 169.257 -5.361 169.257 C-8.361 176.411 -8.361 176.411 -8.361 179.257 C-9.021 179.257 -9.681 179.257 -10.361 179.257 C-11.758 182.345 -13.024 185.409 -14.236 188.57 C-14.575 189.432 -14.914 190.293 -15.263 191.181 C-16.313 193.867 -17.34 196.56 -18.361 199.257 C-18.533 199.706 -18.533 199.706 -19.403 201.976 C-21.843 208.479 -23.764 215.014 -25.423 221.757 C-25.68 222.793 -25.937 223.829 -26.201 224.896 C-32.38 250.464 -36.226 279.584 -30.228 305.488 C-29.141 310.214 -28.404 314.965 -27.673 319.757 C-27.422 321.376 -27.171 322.995 -26.912 324.664 C-26.73 325.849 -26.548 327.035 -26.361 328.257 C-25.701 328.257 -25.041 328.257 -24.361 328.257 C-24.423 329.385 -24.485 330.513 -24.548 331.675 C-24.341 336.734 -23.108 340.882 -21.361 345.57 C-21.051 346.424 -20.742 347.278 -20.423 348.159 C-18.094 354.493 -15.618 360.768 -13.048 367.007 C-12.711 367.835 -12.374 368.663 -12.027 369.516 C-11.206 371.46 -10.292 373.364 -9.361 375.257 C-8.701 375.257 -8.041 375.257 -7.361 375.257 C-6.928 376.804 -6.495 378.351 -6.048 379.945 C-4.909 383.734 -3.799 387.078 -1.361 390.257 C-0.701 390.257 -0.041 390.257 0.639 390.257 C0.784 391.041 0.928 391.825 1.077 392.632 C1.639 395.257 1.639 395.257 2.639 397.257 C3.629 397.257 4.619 397.257 5.639 397.257 C5.639 398.247 5.639 399.237 5.639 400.257 C6.299 400.257 6.959 400.257 7.639 400.257 C7.639 401.247 7.639 402.237 7.639 403.257 C8.299 403.257 8.959 403.257 9.639 403.257 C9.639 404.247 9.639 405.237 9.639 406.257 C10.299 406.257 10.959 406.257 11.639 406.257 C11.969 407.577 12.299 408.897 12.639 410.257 C12.969 410.917 13.299 411.577 13.639 412.257 C14.299 412.257 14.959 412.257 15.639 412.257 C15.639 413.247 15.639 414.237 15.639 415.257 C16.134 415.752 16.134 415.752 18.639 418.257 C18.947 418.805 18.947 418.805 20.502 421.578 C24.215 427.972 29.532 432.963 34.639 438.257 C34.96 438.595 34.96 438.595 36.585 440.301 C46.545 450.738 56.926 459.839 68.639 468.257 C69.882 469.167 71.125 470.077 72.405 471.015 C75.714 473.309 78.92 474.742 82.639 476.257 C85.28 477.67 87.254 478.813 89.217 481.078 C92.623 484.143 96.57 485.822 100.702 487.695 C101.128 487.892 101.128 487.892 103.283 488.889 C104.971 489.668 106.661 490.443 108.353 491.215 C110.257 492.083 112.156 492.964 114.053 493.847 C123.171 498.072 131.671 500.845 141.639 502.257 C141.639 502.917 141.639 503.577 141.639 504.257 C161.913 509.662 181.658 512.726 202.639 513.257 C203.712 513.299 204.784 513.34 205.889 513.382 C228.918 513.918 253.181 510.28 275.112 503.359 C279.258 502.064 283.39 501.137 287.639 500.257 C288.629 499.927 289.619 499.597 290.639 499.257 C290.639 498.597 290.639 497.937 290.639 497.257 C291.021 497.226 291.021 497.226 292.952 497.07 C297.322 496.107 300.974 494.373 305.002 492.46 C307.639 491.257 307.639 491.257 311.327 490.07 C311.708 489.936 311.708 489.936 313.639 489.257 C313.639 488.597 313.639 487.937 313.639 487.257 C315.623 486.545 317.629 485.892 319.639 485.257 C322.725 484.043 325.648 482.707 328.639 481.257 C328.639 480.597 328.639 479.937 328.639 479.257 C330.29 478.552 331.96 477.893 333.639 477.257 C345.873 470.28 356.876 461.279 367.639 452.257 C368.453 451.581 369.266 450.904 370.104 450.206 C371.991 448.605 373.822 446.937 375.639 445.257 C375.639 444.597 375.639 443.937 375.639 443.257 C376.299 443.257 376.959 443.257 377.639 443.257 C379.274 441.448 380.897 439.628 382.471 437.765 C384.818 435.05 387.287 432.479 389.764 429.882 C415.639 401.762 415.639 401.762 415.639 392.257 C416.299 392.257 416.959 392.257 417.639 392.257 C420.858 387.429 422.448 382.915 423.639 377.257 C424.299 377.257 424.959 377.257 425.639 377.257 C426.71 374.921 426.71 374.921 427.764 371.882 C428.117 370.885 428.471 369.887 428.835 368.859 C429.639 366.257 429.639 366.257 429.639 364.257 C430.299 364.257 430.959 364.257 431.639 364.257 C431.954 363.241 432.268 362.226 432.592 361.179 C434.62 354.657 436.658 348.15 438.889 341.695 C440.296 337.542 441.105 333.619 441.639 329.257 C442.298 327.588 442.966 325.921 443.639 324.257 C444.932 319.159 445.909 314.526 445.639 309.257 C446.299 309.257 446.959 309.257 447.639 309.257 C453.414 275.484 449.272 240.884 439.639 208.257 C438.979 208.257 438.319 208.257 437.639 208.257 C437.495 206.71 437.35 205.164 437.202 203.57 C435.561 193.568 430.904 184.375 426.639 175.257 C426.419 174.783 426.419 174.783 425.302 172.383 C424.147 169.975 422.901 167.611 421.639 165.257 C420.979 165.257 420.319 165.257 419.639 165.257 C419.581 164.891 419.581 164.891 419.284 163.035 C417.791 156.603 413.471 150.543 409.639 145.257 C408.979 144.927 408.319 144.597 407.639 144.257 C407.365 143.542 407.09 142.826 406.807 142.089 C403.634 134.394 394.277 121.076 386.639 117.257 C386.247 116.556 385.855 115.855 385.452 115.132 C382.963 111.184 380.097 108.406 376.639 105.257 C375.649 105.257 374.659 105.257 373.639 105.257 C372.979 103.937 372.319 102.617 371.639 101.257 C362.939 92.057 352.157 84.269 341.639 77.257 C340.319 77.257 338.999 77.257 337.639 77.257 C337.639 76.597 337.639 75.937 337.639 75.257 C336.649 75.257 335.659 75.257 334.639 75.257 C334.639 74.597 334.639 73.937 334.639 73.257 C333.979 73.257 333.319 73.257 332.639 73.257 C332.639 72.597 332.639 71.937 332.639 71.257 C327.235 67.233 321.179 64.494 314.905 62.136 C312.053 61.03 309.373 59.624 306.639 58.257 C305.979 58.257 305.319 58.257 304.639 58.257 C304.639 57.597 304.639 56.937 304.639 56.257 C301.571 54.802 298.544 53.498 295.389 52.257 C294.481 51.896 293.572 51.534 292.636 51.162 C285.996 48.598 279.743 47.005 272.639 46.257 C272.639 45.597 272.639 44.937 272.639 44.257 C268.621 43.413 264.599 42.584 260.577 41.757 C259.443 41.519 258.309 41.28 257.141 41.035 C251.562 39.896 246.369 38.925 240.639 39.257 C240.639 38.597 240.639 37.937 240.639 37.257 C219.626 34.422 198.646 34.217 177.639 37.257 Z " fill="#161E2E" transform="translate(150.36080074310303,142.74273109436035)"/>
<path d="M0 0 C1.839 -0.005 3.679 -0.014 5.518 -0.024 C10.548 -0.045 15.577 -0.029 20.606 -0.007 C26.04 0.011 31.473 -0.006 36.907 -0.018 C47.54 -0.037 58.173 -0.024 68.807 0 C81.193 0.027 93.578 0.024 105.964 0.02 C128.062 0.014 150.161 0.037 172.259 0.076 C193.699 0.114 215.139 0.128 236.579 0.117 C259.935 0.105 283.29 0.105 306.645 0.128 C309.135 0.13 311.626 0.133 314.116 0.135 C314.729 0.136 314.729 0.136 317.829 0.139 C326.461 0.147 335.094 0.146 343.727 0.142 C354.245 0.138 364.763 0.148 375.282 0.177 C380.648 0.192 386.014 0.2 391.38 0.191 C396.293 0.183 401.206 0.193 406.119 0.218 C407.895 0.224 409.672 0.223 411.448 0.215 C424.27 0.16 434.17 1.295 443.724 10.748 C451.119 20.764 450.936 29.276 450.964 41.494 C450.974 44.042 451.005 46.589 451.036 49.137 C451.041 50.758 451.046 52.379 451.052 54.049 C451.061 55.526 451.07 57.002 451.08 58.523 C450.5 65.399 448.119 71.428 443.724 76.748 C432.651 85.861 421.736 86.186 407.884 86.129 C406.055 86.133 404.227 86.138 402.398 86.144 C397.385 86.156 392.372 86.15 387.358 86.141 C381.947 86.134 376.536 86.144 371.125 86.153 C360.529 86.166 349.934 86.163 339.338 86.154 C330.726 86.148 322.115 86.147 313.504 86.15 C312.278 86.15 311.052 86.151 309.789 86.151 C307.299 86.152 304.81 86.153 302.32 86.154 C278.972 86.163 255.624 86.153 232.277 86.137 C212.244 86.123 192.211 86.126 172.178 86.14 C148.914 86.156 125.65 86.162 102.386 86.153 C99.905 86.152 97.424 86.151 94.944 86.15 C94.333 86.15 94.333 86.15 91.245 86.148 C82.644 86.146 74.043 86.15 65.442 86.157 C54.96 86.166 44.478 86.163 33.996 86.147 C28.648 86.14 23.301 86.137 17.953 86.146 C13.056 86.155 8.16 86.15 3.264 86.135 C1.493 86.131 -0.277 86.133 -2.048 86.14 C-13.463 86.183 -22.974 86.142 -32.276 78.748 C-32.276 78.088 -32.276 77.428 -32.276 76.748 C-32.936 76.748 -33.596 76.748 -34.276 76.748 C-35.749 74.702 -35.749 74.702 -37.339 71.998 C-37.866 71.117 -38.393 70.235 -38.937 69.327 C-42.48 62.508 -41.499 54.667 -41.517 47.188 C-41.526 44.653 -41.557 42.119 -41.589 39.584 C-41.656 18.563 -41.656 18.563 -34.839 10.998 C-24.569 0.845 -13.939 -0.126 0 0 Z " fill="#CC2044" transform="translate(154.2764129638672,39.251556396484375)"/>
<path d="M0 0 C1.225 0.73 2.449 1.459 3.711 2.211 C7.481 4.463 11.241 6.73 15 9 C22.747 13.666 30.508 18.305 38.312 22.875 C44.892 26.73 51.407 30.68 57.902 34.674 C64.039 38.438 70.232 42.101 76.438 45.75 C89.133 53.241 89.133 53.241 93.625 56 C94.401 56.474 95.177 56.949 95.977 57.438 C99.404 60.084 101.766 62.624 102.5 66.938 C101.673 72 99.223 75.115 95.102 78.098 C93.954 78.746 92.807 79.394 91.625 80.062 C90.291 80.831 88.957 81.599 87.582 82.391 C86.849 82.806 86.117 83.222 85.362 83.65 C80.982 86.153 76.652 88.741 72.312 91.312 C70.415 92.432 68.518 93.552 66.621 94.672 C58.891 99.242 51.194 103.869 43.499 108.499 C40.921 110.047 38.342 111.593 35.762 113.137 C21.418 121.724 21.418 121.724 14.688 125.875 C14.191 126.178 14.191 126.178 11.676 127.711 C8.583 129.637 5.531 131.609 2.48 133.602 C0.446 134.901 -1.59 136.201 -3.625 137.5 C-4.579 138.137 -5.534 138.773 -6.517 139.429 C-12.931 143.478 -18.363 145.501 -26 144 C-29.413 141.474 -30.666 140.001 -32 136 C-32.097 134.176 -32.135 132.349 -32.14 130.523 C-32.146 129.385 -32.152 128.247 -32.158 127.074 C-32.159 125.824 -32.16 124.574 -32.161 123.286 C-32.166 121.97 -32.171 120.655 -32.176 119.299 C-32.191 114.934 -32.198 110.569 -32.203 106.203 C-32.209 103.175 -32.215 100.147 -32.22 97.119 C-32.231 90.763 -32.237 84.408 -32.24 78.053 C-32.246 69.907 -32.27 61.762 -32.298 53.616 C-32.317 47.359 -32.322 41.101 -32.324 34.844 C-32.327 31.841 -32.335 28.838 -32.348 25.835 C-32.365 21.634 -32.363 17.433 -32.356 13.231 C-32.366 11.99 -32.375 10.748 -32.384 9.468 C-32.355 3.342 -32.239 -1.589 -29 -7 C-18.709 -13.659 -9.035 -5.443 0 0 Z " fill="#F5EEE1" transform="translate(332,352)"/>
<path d="M0 0 C0 0.66 0 1.32 0 2 C0.99 2 1.98 2 3 2 C3 2.66 3 3.32 3 4 C3.608 4.155 3.608 4.155 6.688 4.938 C17.315 8.278 25.353 17.404 30.926 26.688 C32 29 32 29 32 32 C32.66 32 33.32 32 34 32 C34 32.99 34 33.98 34 35 C34.66 35 35.32 35 36 35 C37.249 43.584 37.57 52.344 37 61 C36.67 61.165 36.67 61.165 35 62 C34.354 63.644 33.783 65.317 33.25 67 C31.547 71.911 29.387 75.845 26.375 80.062 C25 82 25 82 23.438 84.875 C21.645 87.525 19.76 88.396 17 90 C16.196 90.556 15.391 91.111 14.562 91.684 C2.166 100.168 -10.384 102.806 -25.266 100.492 C-37.747 97.708 -45.959 91.889 -55 83 C-55.447 82.584 -55.447 82.584 -57.711 80.477 C-61.414 76.47 -63 71.433 -63 66 C-63.66 66 -64.32 66 -65 66 C-68.458 54.115 -68.97 41.062 -63 30 C-62.34 30 -61.68 30 -61 30 C-60.979 29.196 -60.959 28.391 -60.938 27.562 C-58.694 19.036 -50.944 12.077 -44 7 C-29.876 -1.177 -15.791 -1.831 0 0 Z " fill="#151D2D" transform="translate(225,369)"/>
<path d="M0 0 C0 0.66 0 1.32 0 2 C1.341 2.371 2.681 2.743 4.062 3.125 C9.849 4.927 12.382 8.344 16 13 C17.286 14.422 18.577 15.839 19.875 17.25 C23 21 23 21 24 25 C24.66 25 25.32 25 26 25 C31.568 35.798 31.131 46.051 31 58 C30.34 58 29.68 58 29 58 C28.897 59.011 28.794 60.021 28.688 61.062 C27.979 65.118 26.868 68.339 25 72 C24.34 72 23.68 72 23 72 C22.319 73.661 21.655 75.329 21 77 C15.578 84.744 7.065 92.705 -2.367 94.719 C-3.236 94.812 -4.105 94.904 -5 95 C-5 95.66 -5 96.32 -5 97 C-17.024 98.963 -28.382 98.624 -40 95 C-40.905 94.749 -41.81 94.497 -42.742 94.238 C-45.25 93.5 -45.25 93.5 -49 92 C-49 91.01 -49 90.02 -49 89 C-50.32 88.34 -51.64 87.68 -53 87 C-59.405 82.997 -62.438 79.079 -65.125 72.062 C-65.414 71.382 -65.702 70.701 -66 70 C-66.66 70 -67.32 70 -68 70 C-68.33 67.36 -68.66 64.72 -69 62 C-69.66 62 -70.32 62 -71 62 C-73.388 51.571 -72.579 39.314 -70 29 C-69.505 28.835 -69.505 28.835 -67 28 C-66.67 26.68 -66.34 25.36 -66 24 C-63.538 16.517 -57.685 10.689 -51.125 6.562 C-50.094 6.047 -49.062 5.531 -48 5 C-47.01 4.01 -46.02 3.02 -45 2 C-30.372 -5.542 -15.337 -5.112 0 0 Z " fill="#151D2D" transform="translate(531,372)"/>
<path d="M0 0 C7.175 5.637 12.75 12.982 17.5 20.75 C17.5 21.41 17.5 22.07 17.5 22.75 C18.16 22.75 18.82 22.75 19.5 22.75 C25.291 33.31 24.835 45.654 22.438 57.25 C20.657 63.302 17.455 67.901 13.5 72.75 C13.22 73.105 13.22 73.105 11.805 74.902 C6.012 81.921 -0.786 87.787 -9.5 90.75 C-10.49 90.75 -11.48 90.75 -12.5 90.75 C-12.5 91.41 -12.5 92.07 -12.5 92.75 C-24.538 94.681 -35.852 94.374 -47.5 90.75 C-48.902 90.358 -50.305 89.966 -51.75 89.562 C-52.204 89.428 -52.204 89.428 -54.5 88.75 C-54.5 88.09 -54.5 87.43 -54.5 86.75 C-55.49 86.75 -56.48 86.75 -57.5 86.75 C-57.5 85.76 -57.5 84.77 -57.5 83.75 C-58.82 83.09 -60.14 82.43 -61.5 81.75 C-68.756 76.308 -73.529 70.93 -75.25 61.75 C-75.332 60.76 -75.415 59.77 -75.5 58.75 C-76.16 58.75 -76.82 58.75 -77.5 58.75 C-80.878 46.294 -79.93 35.835 -75.5 23.75 C-74.84 23.75 -74.18 23.75 -73.5 23.75 C-73.17 22.43 -72.84 21.11 -72.5 19.75 C-71.133 15.562 -69.145 12.876 -66.188 9.625 C-65.808 9.201 -65.808 9.201 -63.887 7.055 C-58.393 1.75 -58.393 1.75 -54.5 1.75 C-54.5 1.09 -54.5 0.43 -54.5 -0.25 C-51.618 -1.652 -49.729 -2.25 -46.5 -2.25 C-46.5 -2.91 -46.5 -3.57 -46.5 -4.25 C-31.025 -7.689 -14.212 -8.062 0 0 Z " fill="#151D2D" transform="translate(387.5,228.25)"/>
<path d="M0 0 C0 0.66 0 1.32 0 2 C0.99 2.165 0.99 2.165 6 3 C6 3.66 6 4.32 6 5 C7.32 5.66 8.64 6.32 10 7 C14.502 10.49 18.765 14.282 22 19 C22 19.66 22 20.32 22 21 C22.66 21 23.32 21 24 21 C25.254 23.887 25.254 23.887 26.562 27.688 C26.78 28.308 26.78 28.308 27.879 31.449 C30.029 38.259 30.215 44.529 30.25 51.625 C30.271 52.674 30.291 53.724 30.312 54.805 C30.315 55.307 30.315 55.307 30.328 57.852 C30.337 58.768 30.347 59.684 30.356 60.627 C30 63 30 63 27 66 C26.019 67.726 25.085 69.479 24.188 71.25 C17.056 84.486 6.891 91.573 -7.227 96.09 C-10 97 -10 97 -11 98 C-18.568 98.97 -25.444 99.162 -33 98 C-33.33 97.01 -33.66 96.02 -34 95 C-35.988 94.602 -37.993 94.287 -40 94 C-43.14 93.192 -45.964 92.196 -49 91 C-49 90.01 -49 89.02 -49 88 C-50.32 87.34 -51.64 86.68 -53 86 C-57.649 82.538 -60.87 78.879 -64 74 C-64 73.34 -64 72.68 -64 72 C-64.66 72 -65.32 72 -66 72 C-66.66 69.03 -67.32 66.06 -68 63 C-68.66 63 -69.32 63 -70 63 C-72.554 54.06 -74.664 41.475 -70 33 C-69.34 33 -68.68 33 -68 33 C-67.918 32.361 -67.835 31.721 -67.75 31.062 C-64.305 16.996 -55.955 9.356 -44 2 C-32.222 -4.814 -12.555 -5.258 0 0 Z " fill="#151D2D" transform="translate(380,519)"/>
<path d="M0 0 C0 0.99 0 1.98 0 3 C-28.237 4.071 -56.453 4.149 -84.707 4.134 C-91.12 4.132 -97.533 4.134 -103.946 4.136 C-114.742 4.138 -125.538 4.135 -136.334 4.13 C-147.257 4.126 -158.18 4.126 -169.103 4.13 C-227.742 4.156 -286.37 4.174 -345 3 C-343 1 -343 1 -338.622 0.776 C-336.658 0.778 -334.695 0.791 -332.731 0.812 C-332.194 0.814 -332.194 0.814 -329.473 0.823 C-327.114 0.831 -324.754 0.845 -322.394 0.862 C-317.234 0.899 -312.075 0.913 -306.915 0.93 C-304.165 0.939 -301.415 0.949 -298.665 0.96 C-284.933 1.015 -271.201 0.978 -257.469 0.924 C-253.213 0.908 -248.957 0.893 -244.702 0.878 C-237.291 0.852 -229.88 0.825 -222.469 0.798 C-214.606 0.769 -206.742 0.742 -198.879 0.714 C-184.091 0.662 -169.303 0.608 -154.515 0.555 C-142.697 0.512 -130.879 0.469 -119.061 0.427 C-118.222 0.424 -117.383 0.421 -116.518 0.418 C-112.305 0.403 -108.092 0.388 -103.879 0.373 C-69.253 0.25 -34.626 0.126 0 0 Z " fill="#C7173E" transform="translate(582,120)"/>
<path d="M0 0 C1.925 2.887 2.9 5.234 4 8.5 C4.33 9.459 4.66 10.418 5 11.406 C7.73 21.216 8.291 30.441 8.267 40.565 C8.272 41.999 8.276 43.433 8.281 44.911 C8.294 49.699 8.292 54.487 8.291 59.276 C8.295 62.716 8.303 66.156 8.311 69.597 C8.327 77.963 8.333 86.329 8.334 94.694 C8.335 101.5 8.339 108.305 8.346 115.111 C8.363 134.433 8.372 153.756 8.371 173.079 C8.371 174.119 8.371 175.16 8.371 176.232 C8.371 177.273 8.37 178.315 8.37 179.389 C8.37 196.26 8.389 213.131 8.417 230.002 C8.446 247.353 8.459 264.704 8.458 282.054 C8.457 291.784 8.462 301.514 8.484 311.244 C8.502 319.531 8.507 327.817 8.493 336.103 C8.487 340.324 8.488 344.545 8.504 348.766 C8.614 381.447 8.614 381.447 4 396 C3.647 397.139 3.295 398.279 2.932 399.452 C2.624 400.293 2.317 401.134 2 402 C1.67 402 1.34 402 1 402 C1.498 396.427 2.38 391.084 3.52 385.604 C5.03 377.602 5.42 369.964 5.374 361.838 C5.378 360.4 5.382 358.962 5.386 357.481 C5.396 352.71 5.384 347.94 5.372 343.169 C5.373 339.73 5.378 336.29 5.383 332.851 C5.393 324.508 5.386 316.165 5.374 307.823 C5.36 298.094 5.362 288.365 5.364 278.636 C5.367 261.272 5.356 243.908 5.336 226.544 C5.317 209.718 5.31 192.891 5.316 176.065 C5.322 157.711 5.322 139.357 5.31 121.003 C5.309 119.044 5.308 117.085 5.307 115.126 C5.306 114.163 5.305 113.199 5.305 112.206 C5.301 105.434 5.301 98.662 5.303 91.889 C5.305 83.632 5.3 75.375 5.286 67.118 C5.278 62.909 5.275 58.701 5.279 54.493 C5.282 49.922 5.273 45.352 5.261 40.781 C5.264 39.464 5.268 38.147 5.272 36.79 C5.219 25.577 4.117 15.48 0 5 C0 3.35 0 1.7 0 0 Z " fill="#786D74" transform="translate(634,213)"/>
<path d="M0 0 C-2.622 0.967 -5.248 1.923 -7.875 2.875 C-9.337 3.409 -10.799 3.942 -12.305 4.492 C-22.735 7.842 -32.197 8.29 -43.091 8.267 C-44.701 8.272 -46.311 8.276 -47.97 8.281 C-52.42 8.293 -56.87 8.293 -61.321 8.291 C-66.128 8.29 -70.935 8.301 -75.742 8.311 C-85.154 8.327 -94.565 8.333 -103.977 8.334 C-111.63 8.335 -119.284 8.339 -126.938 8.346 C-148.656 8.363 -170.374 8.372 -192.092 8.371 C-192.677 8.371 -192.677 8.371 -195.638 8.371 C-196.809 8.371 -197.981 8.37 -199.188 8.37 C-218.165 8.37 -237.143 8.389 -256.12 8.417 C-275.624 8.446 -295.129 8.459 -314.633 8.458 C-325.576 8.457 -336.519 8.462 -347.462 8.484 C-356.78 8.502 -366.098 8.507 -375.416 8.493 C-380.166 8.487 -384.915 8.486 -389.664 8.504 C-394.825 8.522 -399.986 8.51 -405.147 8.494 C-405.889 8.5 -405.889 8.5 -409.643 8.526 C-419.593 8.46 -428.462 6.813 -438 4 C-438 3.67 -438 3.34 -438 3 C-434.429 2.857 -431.534 2.82 -428.127 3.969 C-418.256 7.223 -406.665 6.145 -396.391 6.134 C-395.629 6.135 -395.629 6.135 -391.778 6.141 C-387.587 6.146 -383.396 6.147 -379.206 6.145 C-374.673 6.145 -370.139 6.151 -365.606 6.155 C-356.738 6.164 -347.87 6.166 -339.002 6.167 C-331.79 6.168 -324.577 6.17 -317.365 6.173 C-296.887 6.182 -276.409 6.186 -255.931 6.185 C-255.38 6.185 -255.38 6.185 -252.59 6.185 C-252.038 6.185 -252.038 6.185 -249.246 6.185 C-231.362 6.185 -213.478 6.194 -195.594 6.208 C-177.203 6.223 -158.812 6.23 -140.42 6.229 C-130.106 6.229 -119.792 6.231 -109.478 6.242 C-100.697 6.251 -91.916 6.253 -83.135 6.247 C-78.661 6.243 -74.187 6.243 -69.713 6.252 C-64.847 6.261 -59.982 6.255 -55.117 6.247 C-53.724 6.252 -52.331 6.258 -50.896 6.263 C-37.761 6.217 -24.766 5.25 -12.188 1.312 C-4.419 -1.105 -4.419 -1.105 0 0 Z " fill="#545860" transform="translate(584,672)"/>
<path d="M0 0 C0.881 3.523 1.117 6.033 1.1 9.61 C1.097 10.753 1.094 11.896 1.091 13.073 C1.083 14.322 1.074 15.572 1.066 16.859 C1.061 18.178 1.057 19.497 1.052 20.856 C1.041 23.723 1.029 26.59 1.014 29.457 C0.992 33.991 0.978 38.525 0.966 43.059 C0.933 55.952 0.891 68.844 0.829 81.737 C0.791 89.62 0.768 97.502 0.754 105.385 C0.746 108.392 0.733 111.4 0.713 114.407 C0.687 118.609 0.679 122.81 0.675 127.011 C0.663 128.259 0.651 129.506 0.638 130.792 C0.641 131.937 0.643 133.082 0.646 134.263 C0.642 135.256 0.638 136.249 0.634 137.272 C1.194 141.445 3.065 144.065 6 147 C8.602 147.414 8.602 147.414 11.625 147.625 C12.628 147.7 13.631 147.775 14.664 147.852 C15.049 147.876 15.049 147.876 17 148 C15 150 15 150 12.066 150.082 C10.91 149.993 9.754 149.904 8.562 149.812 C7.986 149.774 7.986 149.774 5.066 149.582 C2 149 2 149 -1 146 C-1.372 143.406 -1.372 143.406 -1.367 140.231 C-1.37 139.629 -1.37 139.629 -1.384 136.585 C-1.375 135.263 -1.366 133.942 -1.356 132.58 C-1.358 131.19 -1.361 129.799 -1.363 128.367 C-1.366 123.755 -1.347 119.143 -1.328 114.531 C-1.325 111.337 -1.323 108.142 -1.322 104.947 C-1.318 98.246 -1.304 91.544 -1.281 84.842 C-1.252 76.237 -1.242 67.631 -1.238 59.026 C-1.234 52.427 -1.224 45.828 -1.212 39.23 C-1.206 36.056 -1.201 32.882 -1.197 29.709 C-1.191 25.279 -1.177 20.849 -1.161 16.42 C-1.16 15.098 -1.159 13.777 -1.158 12.415 C-1.152 11.212 -1.146 10.009 -1.14 8.769 C-1.137 7.722 -1.134 6.674 -1.131 5.594 C-1 3 -1 3 0 0 Z " fill="#D16E7E" transform="translate(300,348)"/>
<path d="M0 0 C-2.622 0.967 -5.248 1.923 -7.875 2.875 C-9.337 3.409 -10.799 3.942 -12.305 4.492 C-20.565 7.145 -28.203 8.3 -36.856 8.227 C-37.32 8.227 -37.32 8.227 -39.668 8.228 C-42.698 8.227 -45.728 8.211 -48.758 8.195 C-50.873 8.192 -52.989 8.189 -55.105 8.187 C-60.645 8.179 -66.185 8.16 -71.725 8.137 C-77.39 8.117 -83.054 8.108 -88.719 8.098 C-99.813 8.076 -110.906 8.042 -122 8 C-122 7.67 -122 7.34 -122 7 C-112.612 6.007 -103.328 5.898 -93.895 5.973 C-90.775 5.985 -87.656 5.998 -84.537 6.01 C-79.677 6.035 -74.818 6.062 -69.958 6.096 C-65.228 6.126 -60.499 6.144 -55.77 6.16 C-55.056 6.167 -55.056 6.167 -51.443 6.201 C-38.109 6.234 -24.96 5.31 -12.188 1.312 C-4.419 -1.105 -4.419 -1.105 0 0 Z " fill="#606067" transform="translate(584,672)"/>
<path d="M0 0 C5.279 5.279 3.224 15.855 3.24 22.746 C3.25 25.294 3.281 27.841 3.312 30.389 C3.318 32.01 3.323 33.631 3.328 35.301 C3.337 36.777 3.347 38.254 3.356 39.775 C2.776 46.651 0.395 52.679 -4 58 C-6.848 60.263 -9.736 62.38 -13 64 C-13.66 63.67 -14.32 63.34 -15 63 C-14.67 62.34 -14.34 61.68 -14 61 C-13.01 61 -12.02 61 -11 61 C-10.34 59.68 -9.68 58.36 -9 57 C-7.673 55.106 -6.316 53.232 -4.938 51.375 C-0.375 45.22 0.139 41.813 0.098 34.18 C0.096 33.206 0.095 32.232 0.093 31.229 C0.088 28.111 0.075 24.993 0.062 21.875 C0.057 19.764 0.053 17.654 0.049 15.543 C0.038 10.362 0.021 5.181 0 0 Z " fill="#C94D65" transform="translate(602,58)"/>
<path d="M0 0 C0.33 0 0.66 0 1 0 C2.046 10.043 2.047 19.926 1.879 30.016 C1.855 31.725 1.831 33.434 1.807 35.143 C1.745 39.602 1.676 44.06 1.605 48.518 C1.534 53.084 1.469 57.649 1.404 62.215 C1.276 71.143 1.14 80.072 1 89 C0.67 89 0.34 89 0 89 C-0.954 79.394 -1.146 69.904 -1.133 60.254 C-1.134 58.685 -1.135 57.115 -1.136 55.499 C-1.137 51.363 -1.133 47.227 -1.127 43.091 C-1.124 39.711 -1.129 36.332 -1.134 32.952 C-1.138 28.907 -1.135 24.862 -1.133 20.816 C-1.135 19.305 -1.137 17.793 -1.139 16.236 C-1.136 14.834 -1.133 13.431 -1.129 11.987 C-1.129 10.755 -1.128 9.523 -1.127 8.254 C-1.015 5.373 -0.667 2.798 0 0 Z " fill="#C91039" transform="translate(297,363)"/>
<path d="M0 0 C0.66 0 1.32 0 2 0 C2.025 1.18 2.05 2.361 2.076 3.577 C2.171 7.971 2.27 12.366 2.372 16.76 C2.416 18.659 2.457 20.558 2.497 22.458 C2.555 25.193 2.619 27.929 2.684 30.664 C2.72 32.308 2.757 33.953 2.795 35.647 C2.962 39.205 3.307 42.514 4 46 C3.01 45.67 2.02 45.34 1 45 C-0.379 40.863 -0.122 36.833 -0.098 32.52 C-0.096 31.592 -0.095 30.664 -0.093 29.707 C-0.088 26.742 -0.075 23.777 -0.062 20.812 C-0.057 18.803 -0.053 16.793 -0.049 14.783 C-0.038 9.855 -0.021 4.928 0 0 Z " fill="#C8123A" transform="translate(115,63)"/>
<path d="M0 0 C2.602 0.926 2.602 0.926 5.625 2.312 C6.126 2.537 6.126 2.537 8.664 3.676 C9.435 4.113 10.206 4.55 11 5 C11 5.66 11 6.32 11 7 C11.928 7.289 12.856 7.577 13.812 7.875 C17 9 17 9 20 13 C16 14 16 14 11.672 11.762 C10.023 10.75 8.383 9.725 6.75 8.688 C6.33 8.431 6.33 8.431 4.203 7.135 C2.094 5.821 0.041 4.417 -2 3 C-2 2.34 -2 1.68 -2 1 C-1.34 0.67 -0.68 0.34 0 0 Z " fill="#C73654" transform="translate(334,350)"/>
<path d="M0 0 C5.744 -0.907 9.103 1.583 13.73 4.59 C16 6 16 6 19 7 C19.33 8.32 19.66 9.64 20 11 C20.66 11 21.32 11 22 11 C22.33 11.99 22.66 12.98 23 14 C19.649 12.735 16.631 11.298 13.574 9.434 C12.778 8.948 11.982 8.463 11.162 7.963 C10.345 7.46 9.529 6.956 8.688 6.438 C7.852 5.93 7.016 5.423 6.154 4.9 C4.084 3.631 2.039 2.319 0 1 C0 0.67 0 0.34 0 0 Z " fill="#C9415D" transform="translate(379,380)"/>
<path d="M0 0 C0.66 0.33 1.32 0.66 2 1 C-7.9 10.9 -17.8 20.8 -28 31 C-28 26.684 -25.867 25.072 -23 22 C-22.34 22 -21.68 22 -21 22 C-20.34 20.68 -19.68 19.36 -19 18 C-13.143 11.619 -6.905 5.254 0 0 Z " fill="#901D3A" transform="translate(205,236)"/>
<path d="M0 0 C6.43 0.409 10.492 2.038 15.938 5.438 C16.592 5.839 16.592 5.839 19.902 7.871 C23 10 23 10 24 12 C17.373 11.642 12.923 9.615 7.5 6 C6.773 5.536 6.046 5.072 5.297 4.594 C3.505 3.435 1.749 2.222 0 1 C0 0.67 0 0.34 0 0 Z " fill="#C83957" transform="translate(404,395)"/>
</svg>
